<svg width="10" height="20" viewBox="0 0 10 20" fill="none" xmlns="http://www.w3.org/2000/svg">
<path fill-rule="evenodd" clip-rule="evenodd" d="M9.79021 0.225964C9.85671 0.297411 9.90947 0.382286 9.94547 0.475729C9.98147 0.569172 10 0.669347 10 0.770516C10 0.871684 9.98147 0.971859 9.94547 1.0653C9.90947 1.15875 9.85671 1.24362 9.79021 1.31507L1.72512 10.0002L9.7902 18.6853C9.8566 18.7568 9.90927 18.8417 9.9452 18.9352C9.98113 19.0286 9.99963 19.1288 9.99963 19.2299C9.99963 19.331 9.98113 19.4312 9.9452 19.5246C9.90927 19.618 9.8566 19.7029 9.7902 19.7744C9.72381 19.846 9.64499 19.9027 9.55824 19.9414C9.47149 19.9801 9.37852 20 9.28462 20C9.19072 20 9.09775 19.9801 9.011 19.9414C8.92425 19.9027 8.84543 19.846 8.77903 19.7744L0.209793 10.5448C0.143291 10.4733 0.090529 10.3884 0.0545297 10.295C0.0185294 10.2015 -1.39522e-06 10.1014 -1.3908e-06 10.0002C-1.38637e-06 9.89903 0.0185295 9.79886 0.0545297 9.70542C0.090529 9.61197 0.143291 9.5271 0.209793 9.45565L8.77903 0.225964C8.84537 0.154337 8.92417 0.0975081 9.01093 0.0587335C9.09768 0.0199589 9.19069 -3.5376e-08 9.28462 -3.12702e-08C9.37855 -2.71645e-08 9.47156 0.019959 9.55831 0.0587336C9.64507 0.0975082 9.72387 0.154337 9.79021 0.225964Z" fill="black"/>
</svg>
