<svg width="20" height="20" viewBox="0 0 20 20" fill="none" xmlns="http://www.w3.org/2000/svg">
<path d="M17.7778 19.6323V15.3263C19.1667 13.814 20 11.8883 20 9.79177C20 4.9295 15.5222 0.987061 10 0.987061C4.47778 0.987061 0 4.9295 0 9.79177C0 14.654 4.47778 18.5965 10 18.5965C11.8466 18.602 13.6615 18.1486 15.2578 17.283L17.7778 19.6323ZM10 16.5248C5.70444 16.5248 2.22222 13.5105 2.22222 9.79177C2.22222 6.07308 5.70444 3.05876 10 3.05876C14.2956 3.05876 17.7778 6.07308 17.7778 9.79177C17.7778 13.5105 14.2956 16.5248 10 16.5248Z" fill="black"/>
</svg>
