<svg width="5" height="15" viewBox="0 0 5 15" fill="none" xmlns="http://www.w3.org/2000/svg">
<path d="M1.88565 1.48658C1.88565 1.75531 2.19501 1.97316 2.57661 1.97316C2.95822 1.97316 3.26758 1.75531 3.26758 1.48658C3.26758 1.21785 2.95822 1 2.57661 1C2.19501 1 1.88565 1.21785 1.88565 1.48658Z" fill="black" stroke="black" stroke-width="2"/>
<path d="M1.88565 7.08912C1.88565 7.35785 2.19501 7.57569 2.57661 7.57569C2.95822 7.57569 3.26758 7.35785 3.26758 7.08912C3.26758 6.82039 2.95822 6.60254 2.57661 6.60254C2.19501 6.60254 1.88565 6.82039 1.88565 7.08912Z" fill="black" stroke="black" stroke-width="2"/>
<path d="M1.88565 12.6917C1.88565 12.9604 2.19501 13.1783 2.57661 13.1783C2.95822 13.1783 3.26758 12.9604 3.26758 12.6917C3.26758 12.423 2.95822 12.2051 2.57661 12.2051C2.19501 12.2051 1.88565 12.423 1.88565 12.6917Z" fill="black" stroke="black" stroke-width="2"/>
</svg>
