<svg width="21" height="22" viewBox="0 0 21 22" fill="none" xmlns="http://www.w3.org/2000/svg">
<path d="M8.79929 0.563646C9.2032 0.200751 9.72701 0 10.27 0C10.813 0 11.3368 0.200751 11.7407 0.563646L19.8094 7.81375C20.0388 8.02005 20.2223 8.27229 20.3479 8.55409C20.4735 8.8359 20.5385 9.14096 20.5385 9.44949V19.7994C20.5385 20.3831 20.3067 20.9428 19.894 21.3555C19.4813 21.7682 18.9216 22 18.338 22H14.6704C14.0868 22 13.527 21.7682 13.1143 21.3555C12.7017 20.9428 12.4698 20.3831 12.4698 19.7994V14C12.4698 13.8055 12.3925 13.6189 12.255 13.4813C12.1174 13.3438 11.9308 13.2665 11.7363 13.2665H8.80223C8.60768 13.2665 8.42111 13.3438 8.28355 13.4813C8.14599 13.6189 8.06871 13.8055 8.06871 14V19.7994C8.06871 20.3831 7.83686 20.9428 7.42418 21.3555C7.01149 21.7682 6.45177 22 5.86815 22H2.20056C1.61693 22 1.05721 21.7682 0.644528 21.3555C0.231844 20.9428 0 20.3831 0 19.7994V9.44949C0 8.826 0.264067 8.23185 0.730585 7.81375L8.79929 0.563646ZM10.7593 1.65512C10.6246 1.53429 10.4501 1.46746 10.2693 1.46746C10.0884 1.46746 9.91388 1.53429 9.77927 1.65512L1.71057 8.90522C1.63413 8.97384 1.57295 9.05774 1.531 9.1515C1.48905 9.24525 1.46726 9.34678 1.46704 9.44949V19.7994C1.46704 19.994 1.54432 20.1806 1.68188 20.3181C1.81944 20.4557 2.00601 20.533 2.20056 20.533H5.86815C6.06269 20.533 6.24926 20.4557 6.38683 20.3181C6.52439 20.1806 6.60167 19.994 6.60167 19.7994V14C6.60167 13.4164 6.83351 12.8567 7.2462 12.444C7.65888 12.0313 8.2186 11.7994 8.80223 11.7994H11.7363C12.3199 11.7994 12.8796 12.0313 13.2923 12.444C13.705 12.8567 13.9369 13.4164 13.9369 14V19.7994C13.9369 19.994 14.0141 20.1806 14.1517 20.3181C14.2893 20.4557 14.4758 20.533 14.6704 20.533H18.338C18.5325 20.533 18.7191 20.4557 18.8566 20.3181C18.9942 20.1806 19.0715 19.994 19.0715 19.7994V9.44949C19.0713 9.34678 19.0495 9.24525 19.0075 9.1515C18.9656 9.05774 18.9044 8.97384 18.828 8.90522L10.7593 1.65512Z" fill="black"/>
</svg>
