<svg width="23" height="24" viewBox="0 0 23 24" fill="none" xmlns="http://www.w3.org/2000/svg">
<path d="M8.79951 1C9.40705 1 9.89945 1.49852 9.89945 2.11341C9.90042 2.25877 9.87272 2.40289 9.81796 2.53753C9.76319 2.67217 9.68242 2.7947 9.58026 2.89811C9.4781 3.00151 9.35657 3.08377 9.2226 3.14017C9.08864 3.19658 8.94486 3.22602 8.79951 3.22682H4.39975C3.18468 3.22682 2.19988 4.22387 2.19988 5.45242V18.8109C2.19988 20.0407 3.18468 21.0378 4.39975 21.0378H17.599C18.8141 21.0378 19.8001 20.0407 19.8001 18.8109V14.3585C19.8001 13.7436 20.2925 13.2451 20.9001 13.2451C21.5076 13.2451 22 13.7436 22 14.3597V18.8109C22 21.2705 20.0292 23.2646 17.599 23.2646H4.39975C1.9696 23.2646 0 21.2705 0 18.8109V5.45242C0 2.9941 1.9696 1 4.39975 1H8.79951Z" fill="black"/>
<path d="M5.28003 17.3679H8.76848L21.56 4.57634L18.0712 1.08789L5.28003 13.8794V17.3679Z" stroke="black" stroke-width="1.76" stroke-linejoin="round"/>
<path d="M14.5828 4.57629L18.0712 8.06516" stroke="black" stroke-width="1.76" stroke-linecap="round" stroke-linejoin="round"/>
</svg>
