<svg width="22" height="22" viewBox="0 0 22 22" fill="none" xmlns="http://www.w3.org/2000/svg">
<path d="M17.2568 0.00683594C19.8989 0.140529 22 2.32472 22 5V17L21.9932 17.2568C21.8638 19.8138 19.8138 21.8638 17.2568 21.9932L17 22H5C2.32472 22 0.140529 19.8989 0.00683594 17.2568L0 17V5C2.57711e-07 2.23858 2.23858 8.0532e-08 5 0H17L17.2568 0.00683594ZM5 1.7998C3.23269 1.7998 1.7998 3.23269 1.7998 5V17C1.7998 18.7673 3.23269 20.2002 5 20.2002H17C18.7673 20.2002 20.2002 18.7673 20.2002 17V5C20.2002 3.23269 18.7673 1.7998 17 1.7998H5Z" fill="#C2C2C2"/>
<line x1="0.880005" y1="6.14004" x2="21.12" y2="6.14004" stroke="#C2C2C2" stroke-width="1.8"/>
<line x1="8.46572" y1="6.13096" x2="4.66592" y2="0.704282" stroke="#C2C2C2" stroke-width="1.8"/>
<line x1="15.4476" y1="6.14171" x2="11.5898" y2="0.632247" stroke="#C2C2C2" stroke-width="1.8"/>
<path d="M14.18 12.974C14.8467 13.3589 14.8467 14.3211 14.18 14.706L9.91999 17.1655C9.25332 17.5504 8.41999 17.0693 8.41999 16.2995L8.41999 11.3805C8.41999 10.6107 9.25333 10.1296 9.91999 10.5145L14.18 12.974Z" fill="#C2C2C2"/>
</svg>
