<svg width="17" height="14" viewBox="0 0 17 14" fill="none" xmlns="http://www.w3.org/2000/svg">
<path d="M9.90203 7.2157C9.25052 7.2157 8.61363 7.0041 8.07192 6.60766C7.5302 6.21123 7.10799 5.64776 6.85866 4.98851C6.60934 4.32926 6.5441 3.60385 6.67121 2.90399C6.79831 2.20414 7.11205 1.56128 7.57274 1.05672C8.03343 0.552149 8.62038 0.208535 9.25938 0.0693254C9.89838 -0.0698842 10.5607 0.00156323 11.1626 0.274633C11.7646 0.547702 12.279 1.01013 12.641 1.60344C13.003 2.19674 13.1962 2.89428 13.1962 3.60785C13.1962 4.56471 12.8491 5.48238 12.2313 6.15898C11.6136 6.83558 10.7757 7.2157 9.90203 7.2157ZM9.90203 1.44314C9.51112 1.44314 9.12899 1.5701 8.80396 1.80796C8.47893 2.04582 8.2256 2.3839 8.07601 2.77945C7.92642 3.175 7.88727 3.61025 7.96354 4.03016C8.0398 4.45007 8.22804 4.83579 8.50446 5.13853C8.78087 5.44127 9.13304 5.64744 9.51644 5.73096C9.89984 5.81449 10.2972 5.77162 10.6584 5.60778C11.0195 5.44394 11.3282 5.16648 11.5454 4.8105C11.7626 4.45451 11.8785 4.03599 11.8785 3.60785C11.8785 3.03373 11.6703 2.48313 11.2996 2.07717C10.9289 1.67121 10.4262 1.44314 9.90203 1.44314Z" fill="black"/>
<path d="M16.3226 13.5294C16.1437 13.5269 15.9727 13.4483 15.8462 13.3105C15.7196 13.1726 15.6475 12.9864 15.6452 12.7915C15.6452 10.8728 14.6878 9.59361 10 9.59361C5.31226 9.59361 4.35484 10.8728 4.35484 12.7915C4.35484 12.9872 4.28347 13.1749 4.15643 13.3133C4.02939 13.4517 3.85708 13.5294 3.67742 13.5294C3.49776 13.5294 3.32545 13.4517 3.19841 13.3133C3.07137 13.1749 3 12.9872 3 12.7915C3 8.11768 7.90452 8.11768 10 8.11768C12.0955 8.11768 17 8.11768 17 12.7915C16.9977 12.9864 16.9256 13.1726 16.799 13.3105C16.6725 13.4483 16.5015 13.5269 16.3226 13.5294Z" fill="black"/>
<mask id="path-3-inside-1_2249_264" fill="white">
<path d="M3 5V3H2V5H0V6H2V8H3V6H5V5H3Z"/>
</mask>
<path d="M3 5H0V8H3V5ZM3 3H6V0H3V3ZM2 3V0H-1V3H2ZM2 5V8H5V5H2ZM0 5V2H-3V5H0ZM0 6H-3V9H0V6ZM2 6H5V3H2V6ZM2 8H-1V11H2V8ZM3 8V11H6V8H3ZM3 6V3H0V6H3ZM5 6V9H8V6H5ZM5 5H8V2H5V5ZM6 5V3H0V5H6ZM3 0H2V6H3V0ZM-1 3V5H5V3H-1ZM2 2H0V8H2V2ZM-3 5V6H3V5H-3ZM0 9H2V3H0V9ZM-1 6V8H5V6H-1ZM2 11H3V5H2V11ZM6 8V6H0V8H6ZM3 9H5V3H3V9ZM8 6V5H2V6H8ZM5 2H3V8H5V2Z" fill="black" mask="url(#path-3-inside-1_2249_264)"/>
</svg>
