<svg width="25" height="20" viewBox="0 0 25 20" fill="none" xmlns="http://www.w3.org/2000/svg">
<path d="M4.16667 0C3.0616 0 2.00179 0.438987 1.22039 1.22039C0.438987 2.00179 0 3.0616 0 4.16667V15.8333C0 16.9384 0.438987 17.9982 1.22039 18.7796C2.00179 19.561 3.0616 20 4.16667 20H15.8333C16.9384 20 17.9982 19.561 18.7796 18.7796C19.561 17.9982 20 16.9384 20 15.8333V14.1734L21.5 15.5067C21.7476 15.6924 22.0421 15.8055 22.3503 15.8333C22.6586 15.8611 22.9685 15.8025 23.2454 15.6641C23.5222 15.5257 23.755 15.3129 23.9177 15.0496C24.0805 14.7863 24.1667 14.4829 24.1667 14.1734V5.8266C24.1667 5.51708 24.0805 5.21367 23.9177 4.95038C23.755 4.68709 23.5222 4.47431 23.2454 4.33589C22.9685 4.19747 22.6586 4.13887 22.3503 4.16667C22.0421 4.19446 21.7476 4.30755 21.5 4.49327L20 5.8266V4.16667C20 3.0616 19.561 2.00179 18.7796 1.22039C17.9982 0.438987 16.9384 0 15.8333 0H4.16667ZM20 7.90993L22.5 5.8266V14.1734L20 12.0901V7.90993ZM18.3333 4.16667V15.8333C18.3333 16.4964 18.0699 17.1323 17.6011 17.6011C17.1323 18.0699 16.4964 18.3333 15.8333 18.3333H4.16667C3.50363 18.3333 2.86774 18.0699 2.3989 17.6011C1.93006 17.1323 1.66667 16.4964 1.66667 15.8333V4.16667C1.66667 3.50363 1.93006 2.86774 2.3989 2.3989C2.86774 1.93006 3.50363 1.66667 4.16667 1.66667H15.8333C16.4964 1.66667 17.1323 1.93006 17.6011 2.3989C18.0699 2.86774 18.3333 3.50363 18.3333 4.16667Z" fill="black"/>
</svg>
