<svg width="23" height="23" viewBox="0 0 23 23" fill="none" xmlns="http://www.w3.org/2000/svg">
<path d="M1 7.81818C1 6.16133 2.34315 4.81818 4 4.81818H4.53571C5.59797 4.81818 6.58103 4.25643 7.12033 3.34126L7.62967 2.47692C8.16897 1.56175 9.15203 1 10.2143 1H12.7857C13.848 1 14.831 1.56175 15.3703 2.47692L15.8797 3.34126C16.419 4.25643 17.402 4.81818 18.4643 4.81818H19C20.6569 4.81818 22 6.16133 22 7.81818V19C22 20.6569 20.6569 22 19 22H4C2.34315 22 1 20.6569 1 19V7.81818Z" stroke="#9B9B9B" stroke-width="2" stroke-linecap="round" stroke-linejoin="round"/>
<path d="M11.5 17.2272C14.1359 17.2272 16.2727 15.0904 16.2727 12.4545C16.2727 9.81859 14.1359 7.68176 11.5 7.68176C8.86412 7.68176 6.72729 9.81859 6.72729 12.4545C6.72729 15.0904 8.86412 17.2272 11.5 17.2272Z" stroke="#9B9B9B" stroke-width="2" stroke-linecap="round" stroke-linejoin="round"/>
</svg>
