<svg width="13" height="9" viewBox="0 0 13 9" fill="none" xmlns="http://www.w3.org/2000/svg">
<path d="M6.5 0.11763C4.01621 0.11763 1.76378 1.60304 0.101718 4.01573C-0.0339061 4.21339 -0.0339061 4.48955 0.101718 4.68721C1.76378 7.10281 4.01621 8.58822 6.5 8.58822C8.98379 8.58822 11.2362 7.10281 12.8983 4.69012C13.0339 4.49245 13.0339 4.2163 12.8983 4.01864C11.2362 1.60303 8.98379 0.11763 6.5 0.11763ZM6.67817 7.33536C5.02941 7.44873 3.66784 5.96332 3.77156 4.15816C3.85665 2.66985 4.96026 1.46351 6.32183 1.37049C7.97059 1.25712 9.33216 2.74252 9.22844 4.54768C9.14069 6.03309 8.03708 7.23944 6.67817 7.33536ZM6.59573 5.95751C5.70753 6.01855 4.97356 5.21917 5.03206 4.24828C5.07727 3.44598 5.67296 2.79775 6.40692 2.74543C7.29513 2.68439 8.0291 3.48377 7.97059 4.45466C7.92273 5.25986 7.32704 5.90809 6.59573 5.95751Z" fill="#848484"/>
</svg>
