<svg width="10" height="5" viewBox="0 0 10 5" fill="none" xmlns="http://www.w3.org/2000/svg">
<path fill-rule="evenodd" clip-rule="evenodd" d="M0.112982 0.104897C0.148705 0.0716462 0.191143 0.0452651 0.237865 0.0272651C0.284586 0.00926505 0.334673 0 0.385258 0C0.435842 0 0.485929 0.00926505 0.532651 0.0272651C0.579373 0.0452651 0.62181 0.0716462 0.657534 0.104897L5.0001 4.13744L9.34267 0.104897C9.37842 0.0717 9.42087 0.0453664 9.46759 0.0274002C9.51431 0.00943405 9.56438 0.000186941 9.61494 0.000186941C9.66551 0.000186941 9.71558 0.00943405 9.7623 0.0274002C9.80902 0.0453664 9.85146 0.0717 9.88722 0.104897C9.92298 0.138094 9.95134 0.177505 9.97069 0.220879C9.99004 0.264254 10 0.310742 10 0.35769C10 0.404638 9.99004 0.451126 9.97069 0.4945C9.95134 0.537875 9.92298 0.577285 9.88722 0.610483L5.27238 4.8951C5.23665 4.92835 5.19422 4.95473 5.14749 4.97273C5.10077 4.99073 5.05068 5 5.0001 5C4.94952 5 4.89943 4.99073 4.85271 4.97273C4.80599 4.95473 4.76355 4.92835 4.72783 4.8951L0.112982 0.610483C0.0771683 0.577315 0.0487541 0.537914 0.0293668 0.494536C0.00997949 0.451158 0 0.404654 0 0.35769C0 0.310725 0.00997949 0.264222 0.0293668 0.220844C0.0487541 0.177465 0.0771683 0.138064 0.112982 0.104897Z" fill="black"/>
</svg>
